<?xml version="1.0" encoding="UTF-8"?>
<svg version="1.1" xmlns="http://www.w3.org/2000/svg" width="512" height="512">
<path d="M0 0 C1.01790619 0.00215515 2.03581238 0.0043103 3.08456421 0.00653076 C17.69363523 0.05620146 32.02575853 0.30709809 46.375 3.3125 C47.34985352 3.51117676 48.32470703 3.70985352 49.32910156 3.91455078 C96.48330175 13.7783642 139.60404351 34.80004583 174.75390625 67.90234375 C177.32342207 70.32395548 177.32342207 70.32395548 180.015625 72.40625 C182.13784837 74.12089404 183.81400162 75.79388239 185.5625 77.875 C188.31391441 81.10672598 191.1583 84.21747916 194.0625 87.3125 C224.26994478 120.58181891 243.6676356 162.84476662 252.625 206.625 C252.77622314 207.36395508 252.92744629 208.10291016 253.08325195 208.86425781 C253.55947268 211.34135852 253.9770315 213.82156898 254.375 216.3125 C254.55305176 217.4166626 254.73110352 218.5208252 254.91455078 219.65844727 C256.63527948 231.63358107 256.77330018 243.54185795 256.75 255.625 C256.74918427 257.21646851 256.74918427 257.21646851 256.74835205 258.84008789 C256.7095155 275.33288303 255.92214972 291.15054425 252.375 307.3125 C252.06151611 308.80765137 252.06151611 308.80765137 251.74169922 310.33300781 C242.09813589 355.45188165 220.56715187 397.74546122 188.50390625 431.0078125 C186.47251772 433.11798235 184.54822617 435.2668194 182.6953125 437.53515625 C180.78257401 439.82464626 178.96035837 441.71698224 176.6875 443.625 C174.51626073 445.46774919 172.37647129 447.31111199 170.3046875 449.265625 C157.78334673 461.04528357 143.41718412 471.03080992 128.375 479.3125 C127.11478027 480.01221924 127.11478027 480.01221924 125.82910156 480.72607422 C112.40665332 488.12148685 98.9007404 494.41363383 84.375 499.3125 C83.15248535 499.72556396 83.15248535 499.72556396 81.90527344 500.14697266 C72.13442323 503.38505506 62.25281263 505.91735473 52.1875 508.0625 C51.26283936 508.26125732 50.33817871 508.46001465 49.38549805 508.66479492 C33.17888823 511.95749027 17.2446298 512.68780278 0.75 512.625 C-0.77735779 512.62176727 -0.77735779 512.62176727 -2.33557129 512.61846924 C-16.95747424 512.56877396 -31.25633932 512.26311242 -45.625 509.3125 C-46.63755859 509.11382324 -47.65011719 508.91514648 -48.69335938 508.71044922 C-95.71838409 499.30685305 -139.05640119 477.63438432 -174.00390625 444.72265625 C-176.57342207 442.30104452 -176.57342207 442.30104452 -179.265625 440.21875 C-181.38784837 438.50410596 -183.06400162 436.83111761 -184.8125 434.75 C-187.56391441 431.51827402 -190.4083 428.40752084 -193.3125 425.3125 C-223.50528824 392.05932324 -242.9794231 349.63889326 -251.9375 305.875 C-252.08485596 305.15610596 -252.23221191 304.43721191 -252.3840332 303.6965332 C-255.35789088 288.05024391 -255.99800362 272.57681954 -255.9375 256.6875 C-255.93534485 255.66959381 -255.9331897 254.65168762 -255.93096924 253.60293579 C-255.88129854 238.99386477 -255.63040191 224.66174147 -252.625 210.3125 C-252.42632324 209.33764648 -252.22764648 208.36279297 -252.02294922 207.35839844 C-241.90232806 158.9765226 -219.9858123 114.98821731 -185.625 79.3125 C-184.99287598 78.65314453 -184.36075195 77.99378906 -183.70947266 77.31445312 C-174.56502521 67.82619695 -165.26765991 59.0862956 -154.625 51.3125 C-153.47394983 50.45443848 -152.32290823 49.59636549 -151.171875 48.73828125 C-142.98224019 42.70072604 -134.47961724 37.31792698 -125.625 32.3125 C-124.91778809 31.9103125 -124.21057617 31.508125 -123.48193359 31.09375 C-100.34654164 18.0683259 -75.17537591 9.31948539 -49.1875 4 C-48.46860596 3.85264404 -47.74971191 3.70528809 -47.0090332 3.5534668 C-31.36274391 0.57960912 -15.88931954 -0.06050362 0 0 Z " fill="#378B4E" transform="translate(255.625,-0.3125)"/>
<path d="M0 0 C35.64 0 71.28 0 108 0 C108 40.59 108 81.18 108 123 C72.36 123 36.72 123 0 123 C0 82.41 0 41.82 0 0 Z " fill="#FAFCFB" transform="translate(112,188)"/>
<path d="M0 0 C0.98259946 -0.00953239 1.96519891 -0.01906477 2.97757411 -0.02888602 C4.60856764 -0.02935611 4.60856764 -0.02935611 6.27251053 -0.0298357 C7.99606636 -0.04192411 7.99606636 -0.04192411 9.7544415 -0.05425674 C12.95360437 -0.07447577 16.15265166 -0.0856131 19.35186577 -0.0928272 C22.79850349 -0.10267657 26.24507517 -0.12386642 29.69166946 -0.14333057 C38.02016061 -0.18764364 46.34866612 -0.21231568 54.67724216 -0.23411843 C57.81222166 -0.24256909 60.9471972 -0.25216564 64.08217333 -0.2617734 C77.8963166 -0.30394759 91.7104629 -0.33989166 105.5246582 -0.35933685 C108.90685662 -0.36417659 112.28905497 -0.36905857 115.6712532 -0.37402821 C116.5119017 -0.375258 117.3525502 -0.37648779 118.2186729 -0.37775484 C131.83967308 -0.39871319 145.46024101 -0.45727773 159.081045 -0.53141072 C173.05939628 -0.60686867 187.03752687 -0.64847724 201.01608205 -0.65690166 C208.86702802 -0.66248437 216.71731908 -0.68303085 224.56806564 -0.74146557 C231.25374293 -0.7911317 237.93862028 -0.81024375 244.62446496 -0.78930333 C248.03640422 -0.77955874 251.44667895 -0.7844223 254.85838318 -0.82853031 C258.5578918 -0.86871754 262.25316944 -0.85365721 265.95268631 -0.82451344 C267.03109244 -0.84936477 268.10949857 -0.8742161 269.22058368 -0.89982051 C276.33071827 -0.76268551 276.33071827 -0.76268551 279.33572435 2.23673189 C280.88320003 4.5235556 282.15609335 6.79244452 283.3665657 9.27123547 C283.98289871 10.31634289 284.59923172 11.36145031 285.23424149 12.43822765 C286.01517166 13.86376965 286.01517166 13.86376965 286.8118782 15.31811047 C287.40871414 16.40076183 288.00555008 17.4834132 288.62047195 18.59887218 C289.23793289 19.72825207 289.85539383 20.85763195 290.4915657 22.02123547 C291.80429364 24.41577597 293.11959279 26.80888672 294.4368782 29.20092297 C294.92852463 30.09431881 294.92852463 30.09431881 295.4301033 31.00576305 C297.57408461 34.88475239 299.78553827 38.71707824 302.0462532 42.52904797 C302.60812332 43.48198742 303.16999344 44.43492687 303.74888992 45.41674328 C304.80375814 47.19661449 305.86999883 48.96980919 306.94908524 50.73510265 C307.65073807 51.92474621 307.65073807 51.92474621 308.3665657 53.13842297 C308.7790657 53.8201759 309.1915657 54.50192883 309.6165657 55.20434093 C310.59513975 57.9011534 310.17605725 59.55817395 309.3665657 62.27123547 C307.60328099 64.03452018 305.27139427 63.3973919 302.92250443 63.40676403 C301.75206085 63.40372768 301.75206085 63.40372768 300.55797195 63.40063 C299.74013229 63.40238232 298.92229263 63.40413464 298.07966995 63.40594006 C295.3627806 63.41035931 292.64595578 63.40742033 289.9290657 63.40404797 C288.04958966 63.40472098 286.17011371 63.40569099 284.29063797 63.40694714 C280.34621225 63.40842421 276.40180912 63.40626925 272.45738602 63.40160656 C267.38944068 63.39590927 262.32154829 63.39918822 257.25360489 63.40517902 C253.37099683 63.40878438 249.48840143 63.40764617 245.605793 63.40505123 C243.73659128 63.40438189 241.86738842 63.40521062 239.99818802 63.40753078 C237.39048067 63.4100569 234.78286029 63.40621731 232.17515945 63.40063 C231.39486374 63.40265423 230.61456802 63.40467846 229.81062698 63.40676403 C224.48082824 63.385498 224.48082824 63.385498 223.3665657 62.27123547 C223.27880965 60.1256472 223.25961351 57.97719125 223.26890945 55.82982922 C223.27213211 54.52465343 223.27535477 53.21947765 223.27867508 51.87475109 C223.28703169 50.48607857 223.29549665 49.09740669 223.3040657 47.70873547 C223.30907904 46.31615891 223.31364224 44.92358065 223.31773758 43.53100109 C223.32957137 40.11103676 223.3460569 36.69115703 223.3665657 33.27123547 C221.60675464 33.27400084 221.60675464 33.27400084 219.81139183 33.27682209 C191.98464879 33.32010364 164.15790836 33.35309937 136.33113874 33.37336612 C132.90886564 33.37586765 129.48659261 33.37845628 126.06431961 33.38109875 C125.38298406 33.38162337 124.70164852 33.38214799 123.99966644 33.38268851 C112.95617936 33.39139979 101.91271303 33.40717372 90.86923827 33.42554106 C79.54424466 33.44422004 68.21926646 33.45519816 56.89425647 33.45941246 C50.53038234 33.46202648 44.16655531 33.46819695 37.80269623 33.48269558 C31.81921657 33.49621782 25.83580366 33.50046902 19.85231018 33.49745083 C17.6503933 33.4980034 15.4484743 33.50201259 13.24657059 33.50964642 C10.25190911 33.5195239 7.25750324 33.51723084 4.26283646 33.5117445 C2.94087066 33.52048302 2.94087066 33.52048302 1.59219849 33.52939808 C-4.40519187 33.49947789 -4.40519187 33.49947789 -6.6334343 31.27123547 C-6.89222336 28.41381359 -6.89222336 28.41381359 -6.8990593 24.80248547 C-6.90163742 23.50955578 -6.90421555 22.21662609 -6.9068718 20.88451672 C-6.90268234 20.20985363 -6.89849289 19.53519054 -6.89417648 18.84008312 C-6.883475 16.77907389 -6.89407372 14.71893627 -6.9068718 12.65795422 C-6.90429367 11.36502453 -6.90171555 10.07209484 -6.8990593 8.73998547 C-6.89680344 7.54824718 -6.89454758 6.3565089 -6.89222336 5.12865734 C-6.45162275 0.26376156 -4.36080393 0.02106767 0 0 Z " fill="#FEFEFE" transform="translate(109.6334342956543,315.7287645339966)"/>
<path d="M0 0 C2.06925507 -0.0001552 4.13851044 -0.00164772 6.20776367 -0.00440979 C10.53154448 -0.00578964 14.85499192 0.0066949 19.17871094 0.02954102 C24.69966928 0.05792405 30.22007432 0.05518258 35.74107361 0.0424509 C40.01009788 0.03547051 44.278996 0.04330994 48.54800415 0.05570793 C50.5828096 0.0601995 52.6176287 0.06057947 54.6524353 0.05664253 C57.50424608 0.05370706 60.35531468 0.07034812 63.20703125 0.09204102 C64.44799057 0.08528854 64.44799057 0.08528854 65.71401978 0.07839966 C75.37125116 0.19944273 83.74747846 2.7501377 90.8125 9.49609375 C97.31065582 16.74573697 100.2919603 23.5285036 100.17578125 33.203125 C100.17652901 34.41303352 100.17652901 34.41303352 100.17729187 35.64738464 C100.17496536 37.33908575 100.16532159 39.03079125 100.14868164 40.72241211 C100.12490922 43.31850796 100.12815334 45.91358725 100.13476562 48.50976562 C100.12919399 50.15755823 100.12208737 51.80534651 100.11328125 53.453125 C100.11419266 54.23017288 100.11510406 55.00722076 100.11604309 55.80781555 C100.04359704 61.26499671 100.04359704 61.26499671 97.8125 63.49609375 C95.33870697 63.75056934 95.33870697 63.75056934 92.15661621 63.75679016 C90.95353317 63.76387497 89.75045013 63.77095978 88.51091003 63.77825928 C87.17068444 63.77596527 85.8304592 63.77345554 84.49023438 63.77075195 C83.08433256 63.77509723 81.67843313 63.78027976 80.27253723 63.78623962 C76.44823661 63.79965983 72.62403463 63.80020503 68.79971504 63.79767632 C65.61111891 63.79660879 62.42254292 63.8014843 59.23395109 63.80628175 C51.71438315 63.81738708 44.19486515 63.81780838 36.67529297 63.81176758 C28.90787931 63.80572382 21.14064661 63.81804657 13.37326384 63.83933765 C6.71251374 63.8569266 0.05182139 63.86295936 -6.60895109 63.8596999 C-10.59073523 63.85788278 -14.57239025 63.86056577 -18.55415344 63.87441444 C-22.29701987 63.88694459 -26.03960315 63.88509485 -29.78246498 63.87200356 C-31.15875149 63.86962776 -32.53505762 63.87240814 -33.91132164 63.88062668 C-35.78472754 63.89101023 -37.65821337 63.88123802 -39.53161621 63.87031555 C-41.10675114 63.87056716 -41.10675114 63.87056716 -42.71370697 63.87082386 C-43.93823452 63.68533246 -43.93823452 63.68533246 -45.1875 63.49609375 C-47.5805157 59.9065702 -47.56038337 57.19737247 -47.62890625 53.0390625 C-47.64267807 52.2996492 -47.65644989 51.5602359 -47.67063904 50.79841614 C-47.69392136 49.22742172 -47.71118158 47.65632831 -47.72290039 46.08520508 C-47.74949143 43.72866437 -47.82428258 41.37686713 -47.90039062 39.02148438 C-48.09827275 27.5783217 -46.1826954 17.72776308 -37.92211914 9.14135742 C-35.72280559 7.23948234 -33.76424729 5.86091214 -31.1875 4.49609375 C-30.62444656 4.1670253 -30.06139313 3.83795685 -29.48127747 3.49891663 C-20.27459105 -1.07016422 -10.01159561 -0.06125231 0 0 Z " fill="#FDFEFD" transform="translate(139.1875,119.50390625)"/>
<path d="M0 0 C0.88779648 -0.01268417 1.77559296 -0.02536835 2.69029236 -0.03843689 C3.64658035 -0.03550125 4.60286835 -0.03256561 5.58813477 -0.02954102 C7.06577049 -0.03740379 7.06577049 -0.03740379 8.57325745 -0.04542542 C10.65706438 -0.0518502 12.74090757 -0.05050273 14.82470703 -0.04199219 C18.01408491 -0.03348848 21.20166858 -0.06222772 24.39086914 -0.09399414 C26.41495714 -0.09560637 28.43904832 -0.09502821 30.46313477 -0.09204102 C31.89453041 -0.10889198 31.89453041 -0.10889198 33.35484314 -0.12608337 C34.6912661 -0.11201195 34.6912661 -0.11201195 36.0546875 -0.09765625 C36.83617661 -0.09749008 37.61766571 -0.09732391 38.4228363 -0.09715271 C41.57733694 0.63171022 42.70075244 1.79195284 44.59204102 4.40405273 C45.10670471 7.66075134 45.10670471 7.66075134 45.12548828 11.57177734 C45.13841164 12.64325264 45.13841164 12.64325264 45.15159607 13.7363739 C45.17426543 16.09341862 45.16751582 18.44927521 45.15844727 20.80639648 C45.16368279 22.44780327 45.16995901 24.08920705 45.17723083 25.73060608 C45.18763701 29.16966921 45.18307123 32.60831865 45.16845703 36.04736328 C45.15127579 40.45053894 45.17475385 44.85240888 45.20994663 49.2554388 C45.23192866 52.64503089 45.2304772 56.03431099 45.22218132 59.4239521 C45.22136209 61.0470377 45.22822021 62.67014627 45.24295235 64.29316521 C45.26041305 66.56523244 45.24584718 68.83495967 45.22314453 71.10693359 C45.22218277 72.39836777 45.22122101 73.68980194 45.2202301 75.02037048 C44.42378705 79.3103371 43.03096852 80.78807057 39.59204102 83.40405273 C37.38523865 84.03224182 37.38523865 84.03224182 35.140625 84.03515625 C33.86921913 84.05395592 33.86921913 84.05395592 32.5721283 84.07313538 C31.66991043 84.05987717 30.76769257 84.04661896 29.83813477 84.03295898 C28.43133202 84.03657692 28.43133202 84.03657692 26.99610901 84.04026794 C25.01835897 84.0392906 23.04058121 84.02592382 21.06298828 84.00097656 C18.03592112 83.96662514 15.0117672 83.98033373 11.98461914 83.99975586 C10.06077859 83.99285836 8.13694557 83.98318685 6.21313477 83.97045898 C5.30889267 83.97541885 4.40465057 83.98037872 3.4730072 83.98548889 C2.62855545 83.96965256 1.7841037 83.95381622 0.9140625 83.9375 C0.17413559 83.93130142 -0.56579132 83.92510284 -1.32814026 83.91871643 C-4.41830937 83.15403543 -5.54532995 81.97194532 -7.40795898 79.40405273 C-7.79791328 76.80068902 -7.94601378 74.62085769 -7.90966797 72.02099609 C-7.91507095 71.2839595 -7.92047394 70.54692291 -7.92604065 69.78755188 C-7.93852903 67.35592258 -7.92203901 64.92547696 -7.90405273 62.49389648 C-7.9042077 60.8028609 -7.90569636 59.11182496 -7.90846252 57.42079163 C-7.9098465 53.87916334 -7.89728767 50.33794005 -7.87451172 46.79638672 C-7.84610514 42.25428609 -7.84887019 37.71285727 -7.86160183 33.17070675 C-7.86855226 29.6800003 -7.86077742 26.18944948 -7.8483448 22.69876289 C-7.84382563 21.02380533 -7.84349757 19.34883109 -7.8474102 17.67387199 C-7.85031682 15.33480362 -7.83384383 12.9966657 -7.81201172 10.65771484 C-7.81651337 9.96412872 -7.82101501 9.2705426 -7.82565308 8.55593872 C-7.78259518 5.7831809 -7.68684406 3.83431154 -6.15820312 1.47595215 C-3.96098479 0.13031299 -2.57252516 0.0178038 0 0 Z " fill="#FDFEFD" transform="translate(147.407958984375,207.595947265625)"/>
<path d="M0 0 C0.92103516 -0.01998047 1.84207031 -0.03996094 2.79101562 -0.06054688 C8.97336986 -0.05615911 13.66009963 0.91296174 18.8125 4.4375 C23.64097239 9.39647165 26.14554275 14.54163187 26.1857605 21.51477051 C26.17497467 22.27866089 26.16418884 23.04255127 26.15307617 23.82958984 C26.15373329 25.05985397 26.15373329 25.05985397 26.15440369 26.31497192 C26.15232369 29.00970769 26.12903024 31.70381123 26.10546875 34.3984375 C26.09986998 36.27315938 26.09560121 38.14788567 26.09260559 40.02261353 C26.08117892 44.94476548 26.05173049 49.86664973 26.01849365 54.78869629 C25.98233493 60.70082569 25.96862125 66.61304485 25.95113373 72.5252533 C25.92209185 81.49618809 25.86458947 90.46653609 25.8125 99.4375 C12.9425 99.4375 0.0725 99.4375 -13.1875 99.4375 C-13.25520508 86.97247329 -13.31027526 74.50756818 -13.34293652 62.04239941 C-13.35861015 56.25467805 -13.3798795 50.46708872 -13.41381836 44.67944336 C-13.4463511 39.09681712 -13.46434021 33.51431808 -13.47213173 27.93160439 C-13.47768618 25.79888213 -13.48853229 23.66616704 -13.50469017 21.53349876 C-13.52638342 18.55237003 -13.52947031 15.57177079 -13.52807617 12.59057617 C-13.538862 11.7036911 -13.54964783 10.81680603 -13.5607605 9.90304565 C-13.55663651 9.09116287 -13.55251251 8.27928009 -13.54826355 7.4427948 C-13.55102893 6.73762317 -13.55379431 6.03245153 -13.55664349 5.30591106 C-12.23967833 -1.35987707 -5.26257184 -0.03967669 0 0 Z " fill="#F9FBF9" transform="translate(357.1875,211.5625)"/>
<path d="M0 0 C17.82 0 35.64 0 54 0 C54 23.43 54 46.86 54 71 C36.18 71 18.36 71 0 71 C0 63.41 0 55.82 0 48 C8.6875 47.8125 8.6875 47.8125 11.3972168 47.79223633 C15.72220194 47.62296193 17.53323621 47.374981 21.01953125 44.57421875 C24.43603628 40.13343608 24.69463565 36.49999184 24 31 C21.85530418 27.39997488 19.87800787 25.48614446 16 24 C13.21957914 23.70409176 10.53516968 23.49352981 7.75 23.375 C3.91375 23.189375 3.91375 23.189375 0 23 C0 15.41 0 7.82 0 0 Z " fill="#FEFEFE" transform="translate(285,239)"/>
<path d="M0 0 C4.03801774 -0.17367408 8.07457791 -0.30034608 12.11547852 -0.38452148 C13.48825967 -0.41962146 14.86078097 -0.46731822 16.23266602 -0.52807617 C27.71619982 -1.02373831 27.71619982 -1.02373831 30.84155273 1.46850586 C32.0703125 3.3125 32.0703125 3.3125 33.05444336 5.23852539 C35.43980269 9.68220409 41.49232809 11.4014146 46 13 C54.4936617 14.66070102 62.88100015 11.6601874 70 7.0625 C72.13040859 5.09109249 72.13040859 5.09109249 73.21020508 2.40161133 C75 0 75 0 78.00268555 -0.56762695 C79.2019165 -0.54144287 80.40114746 -0.51525879 81.63671875 -0.48828125 C82.93544922 -0.47216797 84.23417969 -0.45605469 85.57226562 -0.43945312 C86.94402699 -0.39767609 88.31577177 -0.35535135 89.6875 -0.3125 C91.07092382 -0.28741745 92.45439077 -0.26460418 93.83789062 -0.24414062 C97.22634764 -0.18510827 100.61263385 -0.10280082 104 0 C102.63040469 4.29325446 101.08972679 7.77930582 98.625 11.5625 C98.03976563 12.47128906 97.45453125 13.38007813 96.8515625 14.31640625 C88.99570164 25.70243243 78.99697099 31.8110482 66 36 C64.515 36.495 64.515 36.495 63 37 C44.6319205 38.57670585 29.32428544 35.56515098 14.8125 23.75 C8.22809723 17.72427383 3.61406172 10.09549825 0 2 C0 1.34 0 0.68 0 0 Z " fill="#FAFCFB" transform="translate(126,354)"/>
<path d="M0 0 C21.78 0 43.56 0 66 0 C66 11.39328548 64.65728375 20.10087284 56.671875 28.5390625 C47.66016022 36.41378523 38.63942427 37.8059161 27.02197266 37.18652344 C18.3840157 36.38968703 11.55433585 31.43075966 6 25 C0.52253807 16.17592648 0 10.94363267 0 0 Z " fill="#FAFCFB" transform="translate(255,354)"/>
<path d="M0 0 C1.38218719 -0.01925285 1.38218719 -0.01925285 2.79229736 -0.03889465 C4.29068146 -0.04997505 4.29068146 -0.04997505 5.81933594 -0.0612793 C6.84549011 -0.06935104 7.87164429 -0.07742279 8.92889404 -0.08573914 C11.10443427 -0.09958694 13.2799963 -0.11030597 15.45556641 -0.11816406 C18.77646335 -0.13535698 22.09635979 -0.17923526 25.41699219 -0.22338867 C27.53026611 -0.23351724 29.64354851 -0.24203283 31.75683594 -0.2487793 C32.74766174 -0.26628738 33.73848755 -0.28379547 34.75933838 -0.30183411 C40.50393357 -0.2838416 44.10855424 0.14331901 48.55371094 4.17700195 C50.96751393 7.74785592 50.8433861 11.34908941 50.82836914 15.51245117 C50.83348007 16.24466888 50.838591 16.9768866 50.84385681 17.73129272 C50.85773931 20.14817515 50.85679689 22.56477193 50.85449219 24.98168945 C50.85838025 26.66553859 50.86271515 28.34938675 50.86747742 30.03323364 C50.87493702 33.56214578 50.87465053 37.09095788 50.86938477 40.61987305 C50.86359467 45.13472621 50.8805111 49.64916852 50.90372944 54.16395378 C50.91848676 57.6418801 50.91933569 61.11970798 50.91621971 64.59766006 C50.91673206 66.26177915 50.92195353 67.92590387 50.93203163 69.58999252 C50.94441583 71.92118479 50.93759274 74.2515834 50.92602539 76.58276367 C50.937491 77.60696411 50.937491 77.60696411 50.94918823 78.65185547 C50.89944583 83.20423119 49.94741565 86.31312644 47.55371094 90.17700195 C42.48982758 93.84831739 37.34627145 93.62947903 31.33496094 93.6105957 C30.35885864 93.61583755 29.38275635 93.62107941 28.3770752 93.6264801 C26.31958973 93.63288481 24.26206757 93.63158346 22.20458984 93.62304688 C19.06378837 93.61452928 15.9248021 93.64333282 12.78417969 93.67504883 C10.78027398 93.67666088 8.77636507 93.67608324 6.77246094 93.6730957 C5.83793091 93.68432968 4.90340088 93.69556366 3.94055176 93.70713806 C-1.65579236 93.64755553 -5.09669585 93.05891993 -9.44628906 89.17700195 C-11.8996229 85.57391395 -11.74872145 81.86584883 -11.75268555 77.65795898 C-11.76100906 76.90623413 -11.76933258 76.15450928 -11.77790833 75.38000488 C-11.80197751 72.89822185 -11.81077643 70.41670178 -11.81738281 67.93481445 C-11.82635127 66.2061251 -11.83547315 64.47743654 -11.84474182 62.74874878 C-11.86122582 59.1256929 -11.86893089 55.50272937 -11.87182617 51.87963867 C-11.87721041 47.24350441 -11.91489409 42.60824127 -11.96057034 37.97235298 C-11.9903536 34.40177258 -11.99754999 30.83140167 -11.99855232 27.26070786 C-12.00275187 25.55189904 -12.01517563 23.84308945 -12.03606987 22.13440323 C-12.06301308 19.74056681 -12.05815185 17.34874604 -12.0456543 14.95483398 C-12.06048859 14.25333221 -12.07532288 13.55183044 -12.09060669 12.82907104 C-12.00781844 7.24319091 -10.25173565 4.96604431 -6.44628906 1.17700195 C-4.08851036 -0.0018874 -2.6298934 0.03186712 0 0 Z M-5.1965332 6.24890137 C-7.08431554 9.16133759 -6.87214763 12.07095646 -6.8503418 15.43066406 C-6.85720505 16.16594833 -6.8640683 16.9012326 -6.87113953 17.65879822 C-6.88944988 20.09084349 -6.88556409 22.52224625 -6.87988281 24.9543457 C-6.88444277 26.64441641 -6.88974778 28.33448525 -6.89576721 30.02455139 C-6.90470674 33.56787647 -6.90226591 37.11097628 -6.89233398 40.65429688 C-6.88084603 45.19529271 -6.90104835 49.73551075 -6.93025112 54.27640438 C-6.94859753 57.76714519 -6.94832377 61.25769911 -6.9426136 64.74847603 C-6.94246018 66.42262424 -6.94852183 68.09678496 -6.96090508 69.77088737 C-6.97578364 72.11240279 -6.96516263 74.45247507 -6.94799805 76.79394531 C-6.95766602 77.4855072 -6.96733398 78.17706909 -6.97729492 78.8895874 C-6.92713142 82.15745834 -6.6234889 83.93270738 -4.68505859 86.60510254 C-2.22397604 88.33309382 -1.09204181 88.68558733 1.87573242 88.71044922 C2.72018417 88.72628555 3.56463593 88.74212189 4.43467712 88.75843811 C5.33891922 88.75347824 6.24316132 88.74851837 7.17480469 88.7434082 C8.11171646 88.74960678 9.04862823 88.75580536 10.01393127 88.76219177 C11.99340781 88.76928874 13.97294406 88.76611808 15.95239258 88.75341797 C18.9775207 88.73956465 21.9995478 88.77360901 25.02441406 88.81176758 C26.94954503 88.81271892 28.87467985 88.81085913 30.79980469 88.8059082 C32.15313148 88.82579552 32.15313148 88.82579552 33.53379822 88.84608459 C34.80520409 88.82728493 34.80520409 88.82728493 36.10229492 88.80810547 C37.21337868 88.80666283 37.21337868 88.80666283 38.34690857 88.80519104 C41.8487006 87.80836977 43.34851365 86.02135408 45.55371094 83.17700195 C46.30052844 79.72562119 46.30052844 79.72562119 46.18481445 75.87988281 C46.19196976 75.16381363 46.19912506 74.44774445 46.20649719 73.7099762 C46.22334677 71.35327513 46.20400841 68.99848639 46.18261719 66.6418457 C46.18344615 64.99947452 46.18590658 63.35710341 46.18992615 61.71473694 C46.19278143 58.2773432 46.17810846 54.84060205 46.15063477 51.40332031 C46.11652485 46.99906814 46.12258126 42.59598053 46.14129734 38.19167233 C46.15186851 34.80211185 46.14292905 31.41282212 46.12791252 28.02328682 C46.12273287 26.39939745 46.1232099 24.77547978 46.12945747 23.15159416 C46.13491248 20.88202015 46.11452986 18.61411081 46.0871582 16.34472656 C46.07786034 14.40876869 46.07786034 14.40876869 46.06837463 12.43370056 C45.79836303 9.13093214 45.79836303 9.13093214 43.80395508 6.76037598 C41.26692654 4.97520742 40.08309863 4.67594505 37.01635742 4.67529297 C35.67993446 4.66122154 35.67993446 4.66122154 34.31651306 4.64686584 C32.88511742 4.66371681 32.88511742 4.66371681 31.42480469 4.6809082 C30.43875748 4.67945297 29.45271027 4.67799774 28.43678284 4.67649841 C26.3547164 4.67815682 24.27263764 4.68971157 22.19067383 4.71044922 C18.9993095 4.73942841 15.80960361 4.73105189 12.61816406 4.71801758 C10.59536951 4.72425425 8.57258021 4.73264463 6.54980469 4.7434082 C5.59351669 4.74047256 4.6372287 4.73753693 3.65196228 4.73451233 C2.32026756 4.75353859 2.32026756 4.75353859 0.96166992 4.77294922 C0.18097641 4.7783522 -0.5997171 4.78375519 -1.40406799 4.7893219 C-3.48690801 5.05985884 -3.48690801 5.05985884 -5.1965332 6.24890137 Z " fill="#3C8E53" transform="translate(146.4462890625,202.822998046875)"/>
<path d="M0 0 C0.94854858 -0.00890762 1.89709717 -0.01781525 2.87438965 -0.0269928 C6.00550406 -0.04827891 9.13456112 -0.02596639 12.265625 -0.0012207 C14.44368704 -0.00272309 16.62174852 -0.00615301 18.79980469 -0.01142883 C23.36290398 -0.01576094 27.92529674 0.0010834 32.48828125 0.03320312 C38.3363448 0.07298379 44.1830834 0.06368492 50.03118896 0.03896809 C54.52826796 0.02478356 59.02503762 0.03487301 63.52209473 0.0524807 C65.67825583 0.05832963 67.83444859 0.05702945 69.99060059 0.04845619 C73.00486562 0.04046244 76.01719119 0.06471178 79.03125 0.09765625 C79.92179077 0.08910614 80.81233154 0.08055603 81.7298584 0.07174683 C85.93831738 0.15111436 88.0204685 0.43366319 91.60839844 2.80192566 C93.515625 5.76049805 93.515625 5.76049805 93.515625 13.76049805 C57.875625 13.76049805 22.235625 13.76049805 -14.484375 13.76049805 C-14.484375 5.37615775 -14.484375 5.37615775 -11.17956543 1.90083885 C-7.76114251 -0.39870643 -3.99120322 -0.06147395 0 0 Z " fill="#FAFCFA" transform="translate(242.484375,220.239501953125)"/>
<path d="M0 0 C18.15 0 36.3 0 55 0 C55 7.92 55 15.84 55 24 C36.85 24 18.7 24 0 24 C0 16.08 0 8.16 0 0 Z " fill="#F7FAF7" transform="translate(225,287)"/>
<path d="M0 0 C17.82 0 35.64 0 54 0 C54 7.59 54 15.18 54 23 C36.18 23 18.36 23 0 23 C0 15.41 0 7.82 0 0 Z " fill="#FFFFFF" transform="translate(225,239)"/>
<path d="M0 0 C9.69241679 -0.09040461 19.3845531 -0.16377548 29.07729626 -0.20724869 C33.57813888 -0.22811471 38.07867784 -0.25641412 42.5793457 -0.30175781 C46.92358188 -0.34525108 51.26752616 -0.36914452 55.61196327 -0.37950897 C57.26857409 -0.38689413 58.92516911 -0.4013158 60.5816555 -0.42292023 C62.90398935 -0.45200152 65.22512049 -0.45595419 67.54760742 -0.45410156 C68.23093643 -0.46848267 68.91426544 -0.48286377 69.61830139 -0.49768066 C73.07751568 -0.46786409 74.96180747 -0.02358356 77.93061829 1.80963135 C80 4 80 4 80.5625 7.5 C79.90228838 11.6079834 79.29124741 12.54824767 76 15 C73.37881671 15.37454981 71.18430138 15.50811196 68.56933594 15.45410156 C67.45655273 15.45497772 67.45655273 15.45497772 66.32128906 15.45587158 C63.87517098 15.45309025 61.43027953 15.42199786 58.984375 15.390625 C57.28615993 15.38316274 55.58793624 15.37746973 53.88970947 15.37347412 C49.4244399 15.35821651 44.95969247 15.31893389 40.49462891 15.2746582 C35.93659529 15.23370807 31.37847713 15.21546367 26.8203125 15.1953125 C17.87994226 15.15243936 8.94009628 15.08208875 0 15 C0 10.05 0 5.1 0 0 Z " fill="#FCFDFC" transform="translate(225,267)"/>
<path d="M0 0 C1.55170898 -0.00945648 1.55170898 -0.00945648 3.13476562 -0.019104 C4.81602539 -0.01303131 4.81602539 -0.01303131 6.53125 -0.00683594 C7.67787109 -0.00874939 8.82449219 -0.01066284 10.00585938 -0.01263428 C12.43359598 -0.01399715 14.86133984 -0.01029361 17.2890625 -0.00195312 C21.01579073 0.00874469 24.74203686 -0.00184525 28.46875 -0.01464844 C30.82291774 -0.01332686 33.17708517 -0.01076451 35.53125 -0.00683594 C36.65208984 -0.0108844 37.77292969 -0.01493286 38.92773438 -0.019104 C39.96220703 -0.01279968 40.99667969 -0.00649536 42.0625 0 C43.43245117 0.00238678 43.43245117 0.00238678 44.83007812 0.00482178 C47.03125 0.25878906 47.03125 0.25878906 49.03125 2.25878906 C48.67971294 7.53184494 47.74562713 11.11565767 46.03125 16.25878906 C29.53125 16.25878906 13.03125 16.25878906 -3.96875 16.25878906 C-7.48958333 5.69628906 -7.48958333 5.69628906 -6.96875 2.25878906 C-4.42601278 -0.28394815 -3.52435561 0.00614026 0 0 Z " fill="#F9FCFA" transform="translate(283.96875,199.7412109375)"/>
<path d="M0 0 C0.77679611 -0.0066568 1.55359222 -0.0133136 2.35392761 -0.02017212 C3.99544921 -0.03028101 5.63701176 -0.03498968 7.27856445 -0.03466797 C9.77430023 -0.03902987 12.26825009 -0.07533369 14.76367188 -0.11328125 C16.36327525 -0.11915231 17.96288696 -0.12311977 19.5625 -0.125 C20.30127884 -0.13937103 21.04005768 -0.15374207 21.80122375 -0.16854858 C27.27509153 -0.12092839 30.45761002 1.23269342 34.98046875 4.3359375 C37.97723758 8.10606602 37.98046875 9.28285232 37.98046875 14.3359375 C19.50046875 14.3359375 1.02046875 14.3359375 -18.01953125 14.3359375 C-16.86915531 6.28330592 -16.86915531 6.28330592 -12.01953125 2.3359375 C-8.26857839 -0.17495375 -4.36065813 0.01302983 0 0 Z " fill="#F8FAF8" transform="translate(295.01953125,180.6640625)"/>
<path d="M0 0 C0.92941406 -0.02449219 1.85882813 -0.04898438 2.81640625 -0.07421875 C9.02264985 -0.10055359 12.72367357 0.66385224 17.75 4.375 C20.75 8.375 20.75 8.375 21.75 18.375 C0.96 18.87 0.96 18.87 -20.25 19.375 C-20.25 9.58012821 -20.25 9.58012821 -15.8125 4.6875 C-10.44856682 -0.15312263 -6.91523583 0.00943416 0 0 Z " fill="#F8FBF9" transform="translate(251.25,197.625)"/>
<path d="M0 0 C11.22 0 22.44 0 34 0 C34 0.66 34 1.32 34 2 C28.14100493 7.26803015 22.41003334 9.47618172 14.56640625 9.32421875 C9.15235171 8.64025143 4.00330159 5.66969312 0 2 C0 1.34 0 0.68 0 0 Z " fill="#E7F1EA" transform="translate(161,354)"/>
</svg>
